<svg xmlns="http://www.w3.org/2000/svg" xmlns:xlink="http://www.w3.org/1999/xlink" viewBox="0 0 60.3 46.67"><defs><style>.cls-1{fill:url(#Degradado_sin_nombre_17);}.cls-2{fill:url(#Degradado_sin_nombre_17-2);}.cls-3{fill:url(#Degradado_sin_nombre_17-3);}.cls-4{opacity:0.4;}.cls-5{fill:#001738;}.cls-6{fill:url(#linear-gradient);}.cls-7{fill:url(#linear-gradient-2);}</style><linearGradient id="Degradado_sin_nombre_17" x1="6.77" y1="13.69" x2="16.58" y2="13.69" gradientTransform="translate(-6.67 5.79) rotate(-0.1)" gradientUnits="userSpaceOnUse"><stop offset="0" stop-color="#589cff"/><stop offset="1" stop-color="#0044a9"/></linearGradient><linearGradient id="Degradado_sin_nombre_17-2" x1="-26.19" y1="106.85" x2="-12.11" y2="106.85" gradientTransform="translate(0.52 -78.18) rotate(-13.62)" xlink:href="#Degradado_sin_nombre_17"/><linearGradient id="Degradado_sin_nombre_17-3" x1="4.15" y1="23.43" x2="55.97" y2="23.43" gradientTransform="matrix(1, 0, 0, 1, 0, 0)" xlink:href="#Degradado_sin_nombre_17"/><linearGradient id="linear-gradient" x1="0.1" y1="21.35" x2="60.3" y2="21.35" gradientUnits="userSpaceOnUse"><stop offset="0" stop-color="#0044a9"/><stop offset="1" stop-color="#589cff"/></linearGradient><linearGradient id="linear-gradient-2" x1="0" y1="18.08" x2="46.58" y2="18.08" xlink:href="#linear-gradient"/></defs><g id="Layer_2" data-name="Layer 2"><g id="OBJECTS"><path class="cls-1" d="M.12,19.09h0a5.73,5.73,0,0,1,5.35-5.24l3.92-.1.55,11.42Z"/><path class="cls-2" d="M.1,31.31h0a8.24,8.24,0,0,1,5.7-9.12l2-.63,8,14.94Z"/><path class="cls-3" d="M55.17,20.45l-3.63-6.29L50,11.4,45.2,3.17A6,6,0,0,0,40,.19H20.09a6,6,0,0,0-5.16,3L5,20.45a6.32,6.32,0,0,0-.36.74A5.93,5.93,0,0,0,5,26.41l1.89,3.27,1.6,2.77,6.39,11.06.1.17a6,6,0,0,0,5.16,3H40a6,6,0,0,0,5.17-3l10-17.27A5.93,5.93,0,0,0,55.17,20.45ZM49,25.67l-7.51,13a4.49,4.49,0,0,1-3.89,2.25h-15a4.15,4.15,0,0,1-1-.12,4.46,4.46,0,0,1-2.89-2.13l-4.1-7.1-1.32-2.29-2.08-3.61a4.45,4.45,0,0,1-.31-3.83,3.51,3.51,0,0,1,.31-.65l7.5-13a4.5,4.5,0,0,1,3.89-2.24h15a4.5,4.5,0,0,1,3.89,2.24l.58,1,2.31,4,1.14,2,2.18,3.76L49,21.19A4.48,4.48,0,0,1,49,25.67Z"/><g class="cls-4"><path class="cls-5" d="M21.56,40.8q-1.74.93-3.54,1.74a12.31,12.31,0,0,1-3.19,1L8.44,32.45a43.31,43.31,0,0,0,6.13-.88l4.1,7.1A4.46,4.46,0,0,0,21.56,40.8Z"/><path class="cls-5" d="M51.54,14.16c-1.27,1.64-2.57,3.23-3.88,4.77l-2.18-3.76C47,14,48.46,12.71,50,11.4Z"/><path class="cls-5" d="M11.17,25.67l2.08,3.61c-.82.21-1.64.39-2.47.55a8.54,8.54,0,0,1-3.94-.15L5,26.41a5.93,5.93,0,0,1-.36-5.22,30.87,30.87,0,0,0,6.27.65A4.45,4.45,0,0,0,11.17,25.67Z"/><polygon class="cls-5" points="47.18 8.09 44.34 13.19 42.02 9.18 47.18 8.09"/></g><path class="cls-6" d="M49.61,5.08l4.53,1C35.87,23.34,17.8,33.49.1,31.31A12.24,12.24,0,0,0,17.42,41.58C31.91,35,44.32,22.85,55.4,7.19l1.73,4.21L60.3,0Z"/><path class="cls-7" d="M10.18,28.87C21.26,26.72,31.81,20.34,42,11.28l.48,3.14,4.06-7.29L38.41,8.85l3.15,1.53c-15.47,9-29.62,13.14-41.44,8.71h0A8.54,8.54,0,0,0,10.18,28.87Z"/></g></g></svg>