<svg xmlns="http://www.w3.org/2000/svg" xmlns:xlink="http://www.w3.org/1999/xlink" viewBox="0 0 382.65 46.67"><defs><style>.cls-1{fill:url(#Degradado_sin_nombre_17);}.cls-2{fill:url(#Degradado_sin_nombre_17-2);}.cls-3{fill:url(#Degradado_sin_nombre_17-3);}.cls-4{opacity:0.4;}.cls-5{fill:#001738;}.cls-6{fill:url(#linear-gradient);}.cls-7{fill:url(#linear-gradient-2);}.cls-8{fill:url(#Degradado_sin_nombre_17-4);}</style><linearGradient id="Degradado_sin_nombre_17" x1="6.77" y1="13.69" x2="16.58" y2="13.69" gradientTransform="translate(-6.67 5.79) rotate(-0.1)" gradientUnits="userSpaceOnUse"><stop offset="0" stop-color="#589cff"/><stop offset="1" stop-color="#0044a9"/></linearGradient><linearGradient id="Degradado_sin_nombre_17-2" x1="-26.19" y1="106.85" x2="-12.11" y2="106.85" gradientTransform="translate(0.52 -78.18) rotate(-13.62)" xlink:href="#Degradado_sin_nombre_17"/><linearGradient id="Degradado_sin_nombre_17-3" x1="4.15" y1="23.43" x2="55.97" y2="23.43" gradientTransform="matrix(1, 0, 0, 1, 0, 0)" xlink:href="#Degradado_sin_nombre_17"/><linearGradient id="linear-gradient" x1="0.1" y1="21.35" x2="60.3" y2="21.35" gradientUnits="userSpaceOnUse"><stop offset="0" stop-color="#0044a9"/><stop offset="1" stop-color="#589cff"/></linearGradient><linearGradient id="linear-gradient-2" x1="0" y1="18.08" x2="46.58" y2="18.08" xlink:href="#linear-gradient"/><linearGradient id="Degradado_sin_nombre_17-4" x1="70.93" y1="23.43" x2="382.65" y2="23.43" gradientTransform="matrix(1, 0, 0, 1, 0, 0)" xlink:href="#Degradado_sin_nombre_17"/></defs><g id="Layer_2" data-name="Layer 2"><g id="OBJECTS"><path class="cls-1" d="M.12,19.09h0a5.73,5.73,0,0,1,5.35-5.24l3.92-.1.55,11.42Z"/><path class="cls-2" d="M.1,31.31h0a8.24,8.24,0,0,1,5.7-9.12l2-.63,8,14.94Z"/><path class="cls-3" d="M55.17,20.45l-3.63-6.29L50,11.4,45.2,3.17A6,6,0,0,0,40,.19H20.09a6,6,0,0,0-5.16,3L5,20.45a6.32,6.32,0,0,0-.36.74A5.93,5.93,0,0,0,5,26.41l1.89,3.27,1.6,2.77,6.39,11.06.1.17a6,6,0,0,0,5.16,3H40a6,6,0,0,0,5.17-3l10-17.27A5.93,5.93,0,0,0,55.17,20.45ZM49,25.67l-7.51,13a4.49,4.49,0,0,1-3.89,2.25h-15a4.15,4.15,0,0,1-1-.12,4.46,4.46,0,0,1-2.89-2.13l-4.1-7.1-1.32-2.29-2.08-3.61a4.45,4.45,0,0,1-.31-3.83,3.51,3.51,0,0,1,.31-.65l7.5-13a4.5,4.5,0,0,1,3.89-2.24h15a4.5,4.5,0,0,1,3.89,2.24l.58,1,2.31,4,1.14,2,2.18,3.76L49,21.19A4.48,4.48,0,0,1,49,25.67Z"/><g class="cls-4"><path class="cls-5" d="M21.56,40.8q-1.74.93-3.54,1.74a12.31,12.31,0,0,1-3.19,1L8.44,32.45a43.31,43.31,0,0,0,6.13-.88l4.1,7.1A4.46,4.46,0,0,0,21.56,40.8Z"/><path class="cls-5" d="M51.54,14.16c-1.27,1.64-2.57,3.23-3.88,4.77l-2.18-3.76C47,14,48.46,12.71,50,11.4Z"/><path class="cls-5" d="M11.17,25.67l2.08,3.61c-.82.21-1.64.39-2.47.55a8.54,8.54,0,0,1-3.94-.15L5,26.41a5.93,5.93,0,0,1-.36-5.22,30.87,30.87,0,0,0,6.27.65A4.45,4.45,0,0,0,11.17,25.67Z"/><polygon class="cls-5" points="47.18 8.09 44.34 13.19 42.02 9.18 47.18 8.09"/></g><path class="cls-6" d="M49.61,5.08l4.53,1C35.87,23.34,17.8,33.49.1,31.31A12.24,12.24,0,0,0,17.42,41.58C31.91,35,44.32,22.85,55.4,7.19l1.73,4.21L60.3,0Z"/><path class="cls-7" d="M10.18,28.87C21.26,26.72,31.81,20.34,42,11.28l.48,3.14,4.06-7.29L38.41,8.85l3.15,1.53c-15.47,9-29.62,13.14-41.44,8.71h0A8.54,8.54,0,0,0,10.18,28.87Z"/><path class="cls-8" d="M97.2,22.23a6.71,6.71,0,0,1,1.37,4.24,6.47,6.47,0,0,1-3,5.71c-2,1.35-5,2-8.81,2H70.93v-28h15c3.74,0,6.56.66,8.47,2a6.19,6.19,0,0,1,2.86,5.33,6.44,6.44,0,0,1-1,3.52,7,7,0,0,1-2.9,2.52A8.39,8.39,0,0,1,97.2,22.23Zm-17-9.46v4.17h4.41c2.05,0,3.08-.69,3.08-2.08s-1-2.09-3.08-2.09ZM89,25.39c0-1.47-1-2.2-3.12-2.2H80.22v4.4h5.69C88,27.59,89,26.86,89,25.39Z"/><path class="cls-8" d="M125.56,12.29V34.2H117V32.12a7.72,7.72,0,0,1-2.8,1.86,9.25,9.25,0,0,1-3.41.62,9,9,0,0,1-6.69-2.54c-1.68-1.7-2.52-4.25-2.52-7.67V12.29h9V22.83a5.46,5.46,0,0,0,.72,3.2,2.49,2.49,0,0,0,2.13,1,2.74,2.74,0,0,0,2.2-1.06,5.17,5.17,0,0,0,.88-3.34V12.29Z"/><path class="cls-8" d="M153.8,4.48V34.2h-8.61V32.4c-1.31,1.47-3.32,2.2-6,2.2a10.57,10.57,0,0,1-5.31-1.38,10,10,0,0,1-3.84-4,12.33,12.33,0,0,1-1.42-6,12.2,12.2,0,0,1,1.42-6,10,10,0,0,1,3.84-4,10.48,10.48,0,0,1,5.31-1.39,7.64,7.64,0,0,1,5.57,1.89V4.48Zm-9.9,21.93a4.65,4.65,0,0,0,1-3.18,4.6,4.6,0,0,0-1-3.17,3.49,3.49,0,0,0-5.12,0,4.6,4.6,0,0,0-1,3.17,4.65,4.65,0,0,0,1,3.18,3.44,3.44,0,0,0,5.12,0Z"/><path class="cls-8" d="M182.27,12.29V29.84q0,6.24-3.46,9.39t-9.87,3.14a25.4,25.4,0,0,1-6.13-.7,15.57,15.57,0,0,1-4.85-2l3-6.17A10.4,10.4,0,0,0,164.25,35a12.86,12.86,0,0,0,3.77.6,5.65,5.65,0,0,0,4-1.16,4.42,4.42,0,0,0,1.24-3.4v-.4q-2,2.32-6.05,2.32A10.83,10.83,0,0,1,162,31.7,9.84,9.84,0,0,1,158.08,28a10.62,10.62,0,0,1-1.44-5.54,10.53,10.53,0,0,1,1.44-5.53A9.83,9.83,0,0,1,162,13.2a10.84,10.84,0,0,1,5.22-1.31c3,0,5.16,1,6.49,2.89V12.29ZM172.24,25a3.28,3.28,0,0,0,1.06-2.54,3.25,3.25,0,0,0-1.06-2.53,3.81,3.81,0,0,0-2.66-1,3.89,3.89,0,0,0-2.71,1,3.54,3.54,0,0,0,0,5.07,3.83,3.83,0,0,0,2.69,1A3.74,3.74,0,0,0,172.24,25Z"/><path class="cls-8" d="M209.47,25.35H194.25a3.65,3.65,0,0,0,1.6,1.9,5.46,5.46,0,0,0,2.81.66,7.1,7.1,0,0,0,2.42-.36,8.39,8.39,0,0,0,2.14-1.24L208,31.08q-3.21,3.53-9.58,3.52a15.63,15.63,0,0,1-7-1.46,11,11,0,0,1-4.65-4.06,10.71,10.71,0,0,1-1.64-5.85,10.81,10.81,0,0,1,1.62-5.87,11,11,0,0,1,4.45-4,14.55,14.55,0,0,1,12.41-.12A10.39,10.39,0,0,1,208,17.1a11.23,11.23,0,0,1,1.62,6.13C209.59,23.36,209.55,24.07,209.47,25.35Zm-14.18-6.53a3.66,3.66,0,0,0-1.2,2.17h7a3.73,3.73,0,0,0-1.2-2.15,3.49,3.49,0,0,0-2.33-.78A3.56,3.56,0,0,0,195.29,18.82Z"/><path class="cls-8" d="M228.57,33.44A11.3,11.3,0,0,1,223,34.6c-3.07,0-5.44-.74-7.09-2.22s-2.49-3.71-2.49-6.67V20.1h-3V13.5h3V7.37h9.06V13.5H227v6.6h-4.48v5.53a2.18,2.18,0,0,0,.52,1.56,1.74,1.74,0,0,0,1.36.56,3.55,3.55,0,0,0,2-.6Z"/><path class="cls-8" d="M269.43,22.23a6.77,6.77,0,0,1,1.36,4.24,6.47,6.47,0,0,1-3.05,5.71c-2,1.35-5,2-8.81,2H243.15v-28h15c3.74,0,6.56.66,8.47,2a6.2,6.2,0,0,1,2.87,5.33,6.52,6.52,0,0,1-1,3.52,7.1,7.1,0,0,1-2.91,2.52A8.42,8.42,0,0,1,269.43,22.23Zm-17-9.46v4.17h4.41c2,0,3.08-.69,3.08-2.08s-1-2.09-3.08-2.09Zm8.82,12.62c0-1.47-1.05-2.2-3.13-2.2h-5.69v4.4h5.69C260.21,27.59,261.26,26.86,261.26,25.39Z"/><path class="cls-8" d="M297.78,12.29V34.2h-8.61V32.12a7.64,7.64,0,0,1-2.8,1.86,9.25,9.25,0,0,1-3.41.62,9,9,0,0,1-6.69-2.54c-1.68-1.7-2.52-4.25-2.52-7.67V12.29h9.05V22.83a5.46,5.46,0,0,0,.72,3.2,2.49,2.49,0,0,0,2.13,1,2.74,2.74,0,0,0,2.2-1.06,5.17,5.17,0,0,0,.88-3.34V12.29Z"/><path class="cls-8" d="M326,4.48V34.2h-8.61V32.4q-2,2.2-6,2.2a10.57,10.57,0,0,1-5.31-1.38,10,10,0,0,1-3.84-4,12.33,12.33,0,0,1-1.42-6,12.2,12.2,0,0,1,1.42-6,10,10,0,0,1,3.84-4,10.48,10.48,0,0,1,5.31-1.39A7.62,7.62,0,0,1,317,13.78V4.48Zm-9.89,21.93a4.7,4.7,0,0,0,1-3.18,4.65,4.65,0,0,0-1-3.17,3.5,3.5,0,0,0-5.13,0,4.6,4.6,0,0,0-1,3.17,4.65,4.65,0,0,0,1,3.18,3.46,3.46,0,0,0,5.13,0Z"/><path class="cls-8" d="M354.26,4.48V34.2h-8.62V32.4c-1.3,1.47-3.31,2.2-6,2.2a10.54,10.54,0,0,1-5.31-1.38,10,10,0,0,1-3.85-4,12.44,12.44,0,0,1-1.42-6,12.31,12.31,0,0,1,1.42-6,10,10,0,0,1,3.85-4,10.45,10.45,0,0,1,5.31-1.39,7.6,7.6,0,0,1,5.56,1.89V4.48Zm-9.9,21.93a4.65,4.65,0,0,0,1-3.18,4.6,4.6,0,0,0-1-3.17,3.49,3.49,0,0,0-5.12,0,4.6,4.6,0,0,0-1,3.17,4.65,4.65,0,0,0,1,3.18,3.44,3.44,0,0,0,5.12,0Z"/><path class="cls-8" d="M382.65,12.29l-9,22.35a12.67,12.67,0,0,1-4.29,6,11,11,0,0,1-6.28,1.72,13.27,13.27,0,0,1-3.71-.54,8.22,8.22,0,0,1-2.94-1.42l3-6.21A5.87,5.87,0,0,0,361,35a4.65,4.65,0,0,0,1.67.32,2.8,2.8,0,0,0,2.24-.88l-9.21-22.19H365L369.47,24l4.61-11.74Z"/></g></g></svg>